<?xml version="1.0" encoding="utf-8"?>
<!-- Generator: Adobe Illustrator 18.0.0, SVG Export Plug-In . SVG Version: 6.00 Build 0)  -->
<!DOCTYPE svg PUBLIC "-//W3C//DTD SVG 1.1//EN" "http://www.w3.org/Graphics/SVG/1.1/DTD/svg11.dtd">
<svg version="1.1" xmlns="http://www.w3.org/2000/svg" xmlns:xlink="http://www.w3.org/1999/xlink" x="0px" y="0px"
	 viewBox="0 0 873 480" enable-background="new 0 0 873 480" xml:space="preserve">
<g id="Layer_4">
</g>
<g id="Layer_2" display="none">
	<g display="inline" enable-background="new    ">
		<path fill="#EC1846" d="M397.6,286.5c0,15.1-4.5,26.8-13.4,35c-8.9,8.2-21.5,12.3-37.9,12.3h-10.3v44.8h-36.5V243.6h46.8
			c17.1,0,29.9,3.7,38.4,11.2C393.3,262.2,397.6,272.8,397.6,286.5z M336.1,304.1h6.7c5.5,0,9.8-1.5,13.1-4.6
			c3.2-3.1,4.9-7.3,4.9-12.8c0-9.1-5.1-13.7-15.2-13.7h-9.4L336.1,304.1L336.1,304.1z"/>
		<path fill="#EC1846" d="M534.6,310.9c0,22.7-5.6,40-16.7,51.8c-11.1,11.8-27.5,17.7-49,17.7c-21.2,0-37.4-5.9-48.7-17.8
			c-11.3-11.9-17-29.2-17-51.9c0-22.5,5.6-39.7,16.9-51.5c11.2-11.9,27.6-17.8,49-17.8c21.5,0,37.8,5.9,48.9,17.6
			C529,270.8,534.6,288.1,534.6,310.9z M441.6,310.9c0,26.1,9.1,39.2,27.3,39.2c9.2,0,16.1-3.2,20.6-9.5c4.5-6.3,6.7-16.2,6.7-29.7
			c0-13.5-2.3-23.5-6.8-29.9c-4.5-6.4-11.3-9.7-20.3-9.7C450.8,271.4,441.6,284.5,441.6,310.9z"/>
		<path fill="#EC1846" d="M676.6,378.6h-47.9l-49.3-95.2h-0.8c1.2,15,1.8,26.4,1.8,34.3v60.9H548V243.6h47.7l49.2,93.9h0.6
			c-0.9-13.6-1.3-24.5-1.3-32.8v-61.1h32.5V378.6z"/>
		<path fill="#EC1846" d="M749.1,299.5h58.3v72.8c-15.8,5.4-33.2,8.1-52.2,8.1c-20.8,0-36.9-6-48.3-18.1c-11.4-12.1-17-29.3-17-51.7
			c0-21.8,6.2-38.8,18.7-50.9c12.4-12.1,29.9-18.2,52.3-18.2c8.5,0,16.5,0.8,24.1,2.4c7.5,1.6,14.1,3.6,19.7,6.1l-11.6,28.6
			c-9.7-4.8-20.4-7.2-32.1-7.2c-10.7,0-18.9,3.5-24.7,10.4c-5.8,6.9-8.7,16.8-8.7,29.7c0,12.6,2.6,22.3,7.9,28.9
			c5.3,6.6,12.9,9.9,22.8,9.9c5.4,0,10.4-0.5,15-1.6v-21.2h-24.1V299.5z"/>
	</g>
	<g display="inline" enable-background="new    ">
		<path fill="#EC1846" d="M369.3,194.4h-6.8V147h-56.3v47.4h-6.7V97.9h6.7v42.8h56.3V97.9h6.8V194.4z"/>
		<path fill="#EC1846" d="M470,160.4h-39.2l-13.5,34h-7.5l38.8-96.8h4.3l38,96.8h-7.6L470,160.4z M433.2,154.3h34.5l-13.1-34.8
			c-1.1-2.7-2.4-6.5-4-11.3c-1.2,4.2-2.5,8-3.9,11.5L433.2,154.3z"/>
		<path fill="#EC1846" d="M538.2,152.4v42h-6.7V97.9h23c12,0,20.8,2.2,26.5,6.6s8.6,11.1,8.6,20c0,6.5-1.7,11.9-5.1,16.4
			c-3.4,4.4-8.6,7.6-15.5,9.6l26.2,43.9h-8l-24.9-42H538.2z M538.2,146.6h18.4c8.1,0,14.4-1.8,18.9-5.4c4.5-3.6,6.7-9,6.7-16.1
			c0-7.3-2.2-12.7-6.6-16c-4.4-3.3-11.6-5-21.5-5h-16L538.2,146.6L538.2,146.6z"/>
		<path fill="#EC1846" d="M696.7,125.7c0,9.3-3.2,16.5-9.5,21.4c-6.3,5-15.3,7.5-26.9,7.5h-14.9v39.8h-6.7V97.9h23.6
			C685.2,97.9,696.7,107.2,696.7,125.7z M645.4,148.7h13.3c10.9,0,18.7-1.8,23.6-5.4c4.8-3.6,7.3-9.4,7.3-17.4
			c0-7.4-2.3-12.9-6.9-16.5c-4.6-3.6-11.7-5.4-21.2-5.4h-16L645.4,148.7L645.4,148.7z"/>
		<path fill="#EC1846" d="M791,160.4h-39.2l-13.5,34h-7.5l38.8-96.8h4.3l38,96.8h-7.6L791,160.4z M754.3,154.3h34.5l-13.1-34.8
			c-1.1-2.7-2.4-6.5-4-11.3c-1.2,4.2-2.5,8-3.9,11.5L754.3,154.3z"/>
	</g>
	<g display="inline" enable-background="new    ">
		<path fill="#F6D92A" d="M368.2,193.4h-6.8V146h-56.3v47.4h-6.7V97h6.7v42.8h56.3V97h6.8L368.2,193.4L368.2,193.4z"/>
		<path fill="#F6D92A" d="M468.8,159.4h-39.2l-13.5,34h-7.5l38.8-96.8h4.3l38,96.8h-7.6L468.8,159.4z M432.1,153.3h34.5l-13.1-34.8
			c-1.1-2.7-2.4-6.5-4-11.3c-1.2,4.2-2.5,8-3.9,11.5L432.1,153.3z"/>
		<path fill="#F6D92A" d="M537.1,151.4v42h-6.7V97h23c12,0,20.8,2.2,26.5,6.6c5.7,4.4,8.6,11.1,8.6,20c0,6.5-1.7,11.9-5.1,16.4
			c-3.4,4.4-8.6,7.6-15.5,9.6l26.2,43.9h-8l-24.9-42H537.1z M537.1,145.6h18.4c8.1,0,14.4-1.8,18.9-5.4c4.5-3.6,6.7-9,6.7-16.1
			c0-7.3-2.2-12.7-6.6-16c-4.4-3.3-11.6-5-21.5-5h-16L537.1,145.6L537.1,145.6z"/>
		<path fill="#F6D92A" d="M695.6,124.7c0,9.3-3.2,16.5-9.5,21.4c-6.3,5-15.3,7.5-26.9,7.5h-14.9v39.8h-6.7V97h23.6
			C684.1,97,695.6,106.2,695.6,124.7z M644.3,147.8h13.3c10.9,0,18.7-1.8,23.6-5.4c4.8-3.6,7.3-9.4,7.3-17.4
			c0-7.4-2.3-12.9-6.9-16.5c-4.6-3.6-11.7-5.4-21.2-5.4h-16L644.3,147.8L644.3,147.8z"/>
		<path fill="#F6D92A" d="M789.9,159.4h-39.2l-13.5,34h-7.5l38.8-96.8h4.3l38,96.8h-7.6L789.9,159.4z M753.1,153.3h34.5l-13.1-34.8
			c-1.1-2.7-2.4-6.5-4-11.3c-1.2,4.2-2.5,8-3.9,11.5L753.1,153.3z"/>
	</g>
	<g display="inline" enable-background="new    ">
		<path fill="#FDEE57" d="M395.6,283.8c0,15.1-4.5,26.8-13.4,35s-21.5,12.3-37.9,12.3h-10.3v44.8h-36.5V240.8h46.8
			c17.1,0,29.9,3.7,38.4,11.2C391.3,259.5,395.6,270.1,395.6,283.8z M334.1,301.4h6.7c5.5,0,9.8-1.5,13.1-4.6
			c3.2-3.1,4.9-7.3,4.9-12.8c0-9.1-5.1-13.7-15.2-13.7h-9.4L334.1,301.4L334.1,301.4z"/>
		<path fill="#FDEE57" d="M532.6,308.2c0,22.7-5.6,40-16.7,51.8c-11.1,11.8-27.5,17.7-49,17.7c-21.2,0-37.4-5.9-48.7-17.8
			c-11.3-11.9-17-29.2-17-51.9c0-22.5,5.6-39.7,16.9-51.5c11.2-11.9,27.6-17.8,49-17.8c21.5,0,37.8,5.9,48.9,17.6
			C527,268.1,532.6,285.4,532.6,308.2z M439.6,308.2c0,26.1,9.1,39.2,27.3,39.2c9.2,0,16.1-3.2,20.6-9.5c4.5-6.3,6.7-16.2,6.7-29.7
			c0-13.5-2.3-23.5-6.8-29.9c-4.5-6.4-11.3-9.7-20.3-9.7C448.8,268.6,439.6,281.8,439.6,308.2z"/>
		<path fill="#FDEE57" d="M674.6,375.9h-47.9l-49.3-95.2h-0.8c1.2,15,1.8,26.4,1.8,34.3v60.9H546V240.8h47.7l49.2,93.9h0.6
			c-0.9-13.6-1.3-24.5-1.3-32.8v-61.1h32.5V375.9z"/>
		<path fill="#FDEE57" d="M747.1,296.8h58.3v72.8c-15.8,5.4-33.2,8.1-52.2,8.1c-20.8,0-36.9-6-48.3-18.1c-11.4-12.1-17-29.3-17-51.7
			c0-21.8,6.2-38.8,18.7-50.9c12.4-12.1,29.9-18.2,52.3-18.2c8.5,0,16.5,0.8,24.1,2.4c7.5,1.6,14.1,3.6,19.7,6.1L791.1,276
			c-9.7-4.8-20.4-7.2-32.1-7.2c-10.7,0-18.9,3.5-24.7,10.4c-5.8,6.9-8.7,16.8-8.7,29.7c0,12.6,2.6,22.3,7.9,28.9
			c5.3,6.6,12.9,9.9,22.8,9.9c5.4,0,10.4-0.5,15-1.6V325h-24.1V296.8z"/>
	</g>
</g>
<g id="Layer_1">
	<g>
		<line fill="none" stroke="#11B44C" stroke-width="7.381" stroke-miterlimit="10" x1="23.4" y1="105.5" x2="54.2" y2="393.3"/>
		<polygon fill="none" stroke="#11B44C" stroke-width="7.381" stroke-miterlimit="10" points="123,63.6 204.2,110.4 204.2,378.6 
			96,420.4 54.2,393.3 23.4,105.5 		"/>
		<line fill="none" stroke="#11B44C" stroke-width="7.381" stroke-miterlimit="10" x1="23.4" y1="105.5" x2="123" y2="63.6"/>
		<line fill="none" stroke="#11B44C" stroke-width="7.381" stroke-miterlimit="10" x1="123" y1="63.6" x2="204.2" y2="110.4"/>
		<line fill="none" stroke="#11B44C" stroke-width="7.381" stroke-miterlimit="10" x1="204.2" y1="110.4" x2="204.2" y2="378.6"/>
		<line fill="none" stroke="#11B44C" stroke-width="7.381" stroke-miterlimit="10" x1="96" y1="420.4" x2="204.2" y2="378.6"/>
	</g>
	<g>
		<g>
			<line fill="none" stroke="#11B44C" stroke-width="7" stroke-miterlimit="10" x1="24.2" y1="102.9" x2="54.9" y2="390.8"/>
			<polygon fill="none" stroke="#11B44C" stroke-width="7" stroke-miterlimit="10" points="123.8,61.1 205,107.9 205,376 
				96.8,417.9 54.9,390.8 24.2,102.9 			"/>
			<line fill="none" stroke="#11B44C" stroke-width="7" stroke-miterlimit="10" x1="24.2" y1="102.9" x2="123.8" y2="61.1"/>
			<line fill="none" stroke="#11B44C" stroke-width="7" stroke-miterlimit="10" x1="123.8" y1="61.1" x2="205" y2="107.9"/>
			<line fill="none" stroke="#11B44C" stroke-width="7" stroke-miterlimit="10" x1="205" y1="107.9" x2="205" y2="376"/>
			<line fill="none" stroke="#11B44C" stroke-width="7" stroke-miterlimit="10" x1="96.8" y1="417.9" x2="205" y2="376"/>
		</g>
		<g>
			<line fill="none" stroke="#11B44C" stroke-width="7" stroke-miterlimit="10" x1="25.4" y1="99.2" x2="56.2" y2="387.1"/>
			<polygon fill="none" stroke="#11B44C" stroke-width="7" stroke-miterlimit="10" points="125,57.4 206.2,104.2 206.2,372.3 
				98,414.2 56.2,387.1 25.4,99.2 			"/>
			<line fill="none" stroke="#11B44C" stroke-width="7" stroke-miterlimit="10" x1="25.4" y1="99.2" x2="125" y2="57.4"/>
			<line fill="none" stroke="#11B44C" stroke-width="7" stroke-miterlimit="10" x1="125" y1="57.4" x2="206.2" y2="104.2"/>
			<line fill="none" stroke="#11B44C" stroke-width="7" stroke-miterlimit="10" x1="206.2" y1="104.2" x2="206.2" y2="372.3"/>
			<line fill="none" stroke="#11B44C" stroke-width="7" stroke-miterlimit="10" x1="98" y1="414.2" x2="206.2" y2="372.3"/>
		</g>
	</g>
	<g>
		<circle fill="#FFFFFF" stroke="#FBB11C" stroke-width="7.381" stroke-miterlimit="10" cx="206.2" cy="96.4" r="30"/>
		<circle fill="#FFFFFF" stroke="#F400AF" stroke-width="7.381" stroke-miterlimit="10" cx="209.5" cy="93.7" r="30"/>
	</g>
	<g>
		<circle fill="#11B44C" stroke="#11B44C" stroke-width="7" stroke-miterlimit="10" cx="211.4" cy="91.2" r="30"/>
		<circle fill="#11B44C" stroke="#11B44C" stroke-width="7" stroke-miterlimit="10" cx="214.7" cy="88.5" r="30"/>
	</g>
	<g>
		<path fill="none" stroke="#11B44C" stroke-width="7" stroke-miterlimit="10" d="M184.5,134.7c-1.3,0.3-2.7,0.4-4.1,0.4
			c-11.4,0-20.7-9.3-20.7-20.7c0-4.7,1.6-9,4.2-12.5"/>
		<path fill="none" stroke="#11B44C" stroke-width="7" stroke-miterlimit="10" d="M187.7,133.8c-1,0.4-2.1,0.7-3.2,0.9"/>
	</g>
	<g>
		<path fill="none" stroke="#11B44C" stroke-width="7" stroke-miterlimit="10" d="M165.4,150c-1.3,0.3-2.7,0.4-4.1,0.4
			c-11.4,0-20.7-9.3-20.7-20.7c0-4.7,1.6-9,4.2-12.5"/>
		<path fill="#FFFFFF" stroke="#231F20" stroke-width="5.099" stroke-miterlimit="10" d="M168.6,149.1c-1,0.4-2.1,0.7-3.2,0.9"/>
	</g>
</g>
<g id="Layer_3">
	<g>
		<g>
			<path fill="#737573" stroke="#737573" stroke-miterlimit="10" d="M358.7,166.9h-53.1v44.6c0,1.9-1.6,3.5-3.7,3.5
				c-1.9,0-3.5-1.6-3.5-3.5v-96.2c0-1.9,1.6-3.5,3.5-3.5c2.1,0,3.7,1.6,3.7,3.5v44.6h53.1v-44.6c0-1.9,1.6-3.5,3.5-3.5
				c2.1,0,3.7,1.6,3.7,3.5v96.2c0,1.9-1.6,3.5-3.7,3.5c-1.9,0-3.5-1.6-3.5-3.5V166.9z"/>
			<path fill="#737573" stroke="#737573" stroke-miterlimit="10" d="M470.6,188.3h-47.1l-9.2,24.4c-0.6,1.5-1.9,2.4-3.4,2.4
				c-0.3,0-0.9-0.1-1.3-0.1c-1.8-0.7-2.8-3-2.1-4.7l35.9-95.8c0.6-1.3,2.1-2.2,3.5-2.2c1.6,0,3.1,0.9,3.5,2.2l35.9,95.8
				c0.7,1.8-0.1,4-1.9,4.7c-0.6,0-0.9,0.1-1.3,0.1c-1.3,0-2.8-0.9-3.4-2.4L470.6,188.3z M426.2,181.1h41.8l-20.8-55.5L426.2,181.1z"
				/>
			<path fill="#737573" stroke="#737573" stroke-miterlimit="10" d="M581.5,191.7c0-7.5-3.8-12.3-8.4-15.6c-4.6-3.2-10-4.9-12-5.2
				c-0.4-0.1-0.6-0.3-0.7-0.3h-25.1v40.9c0,1.9-1.6,3.5-3.7,3.5c-1.9,0-3.5-1.6-3.5-3.5v-96.2c0-1.8,1.5-3.4,3.2-3.5h0.3h0.4h28.8
				c16.2,0,29.4,13.1,29.4,29.5c0,11.8-6.9,22-17,26.7c0.4,0.3,0.9,0.4,1.5,0.7c6.8,3.8,13.9,11.4,13.9,23c0,6.1,0.6,9.7,1.3,12
				c0.6,1.8,1.3,2.4,1.5,2.5c1.6-0.1,3.4,0.7,4,2.4c0.4,1.9-0.4,4-2.4,4.7c-0.1,0-0.9,0.1-1.8,0.1h-0.3c-1.9,0-5-1.5-6.6-4.7
				C582.5,205.3,581.5,200.5,581.5,191.7z M560.8,119h-25.5v44.6H560h1.3c12-0.3,21.7-10.2,21.7-22.3C583.1,128.9,573,119,560.8,119
				z"/>
			<path fill="#737573" stroke="#737573" stroke-miterlimit="10" d="M643,115.3c0-1.9,1.6-3.5,3.5-3.5h0.4h28.8
				c16.2,0,29.4,13.3,29.4,29.5s-13.1,29.4-29.4,29.4l-25.5,0.3v40.6c0,1.9-1.6,3.5-3.7,3.5c-1.9,0-3.5-1.6-3.5-3.5V115.3z
				 M675.8,163.7c12.3-0.1,22.3-10.2,22.3-22.4c0-12.3-10-22.3-22.3-22.3h-25.5v44.7H675.8z"/>
			<path fill="#737573" stroke="#737573" stroke-miterlimit="10" d="M795.9,188.3h-47.1l-9.2,24.4c-0.6,1.5-1.9,2.4-3.4,2.4
				c-0.3,0-0.9-0.1-1.3-0.1c-1.8-0.7-2.8-3-2.1-4.7l35.9-95.8c0.6-1.3,2.1-2.2,3.5-2.2c1.6,0,3.1,0.9,3.5,2.2l35.9,95.8
				c0.7,1.8-0.1,4-1.9,4.7c-0.6,0-0.9,0.1-1.3,0.1c-1.3,0-2.8-0.9-3.4-2.4L795.9,188.3z M751.5,181.1h41.8l-20.8-55.5L751.5,181.1z"
				/>
		</g>
		<g>
			<path fill="#737573" stroke="#737573" stroke-width="7" stroke-miterlimit="10" d="M339.7,336.6h-20.6V373c0,5-4.2,9.2-9.4,9.2
				c-5,0-9.2-4.2-9.2-9.2v-99c0-5.2,4.2-9.2,9.2-9.2h0.2h29.9c20,0,36.1,16.1,36.1,36.1C375.8,320.5,359.7,336.6,339.7,336.6z
				 M319.1,318h20.6c9.7,0,17.3-7.7,17.5-17.1c-0.2-9.7-7.7-17.5-17.5-17.5h-20.6V318z"/>
			<path fill="#737573" stroke="#737573" stroke-width="7" stroke-miterlimit="10" d="M509.4,279.4c10.4,11.1,17,25.8,17,42.5
				s-6.5,31.6-17,42.5c-9.9,10.9-24.7,18-40.1,18c-16.1,0-30.9-7-41.1-18c-10.4-10.9-16.6-25.8-16.6-42.5s6.2-31.4,16.6-42.5
				c10.2-11.1,25-18,41.1-18C484.7,261.4,499.5,268.3,509.4,279.4z M507.2,321.8c0-11.4-4.5-22-11.4-29.4
				c-7-7.6-16.4-11.9-26.5-11.9c-10.7,0-20.1,4.4-27.2,11.9c-7,7.4-11.4,18-11.4,29.4c0,11.4,4.4,22,11.4,29.2
				c7,7.6,16.4,12.1,27.2,12.1c10.1,0,19.5-4.5,26.5-12.1C502.7,343.8,507.2,333.3,507.2,321.8z"/>
			<path fill="#737573" stroke="#737573" stroke-width="7" stroke-miterlimit="10" d="M592,373c0,5-4.2,9.2-9.1,9.2
				c-5.2,0-9.2-4.2-9.2-9.2v-97.5c0,0,0,0,0-0.2c-0.2-2.9,1.2-5.9,3.7-7.7c4.2-2.9,9.9-2,12.8,2l54.2,75v-69.1c0-4.9,4-9.1,9.1-9.1
				c5,0,9.2,4.2,9.2,9.1V373c0,5-4.2,9.2-9.2,9.2c-2.7,0-5.2-1.3-6.9-3.4c-0.3-0.3-0.7-0.7-0.8-1L592,303.4V373z"/>
			<path fill="#737573" stroke="#737573" stroke-width="7" stroke-miterlimit="10" d="M707.8,322c0-33.7,27.9-60.6,61.9-60.6
				c14.3,0,27.9,4.9,38.3,13.1c4.4,3.2,5,9.4,1.8,13.6c-3.2,4-9.4,4.9-13.6,1.5c-7.2-5.5-16.4-9.1-26.5-9.1
				c-12.1,0-22.7,4.5-30.2,12.3c-7.9,7.6-12.6,17.8-12.6,29.2c0,11.1,4.7,21.3,12.6,28.9c7.6,7.7,18.1,12.3,30.2,12.3
				c8.4,0,16.3-2.5,23-6.4v-23h-24c-5.2,0-9.6-4.4-9.6-9.6c0-5.4,4.4-9.4,9.6-9.4h33.1c0.2,0,0.2,0,0.2,0c0.2,0,0.2,0,0.2,0
				c5.4,0,9.7,4,9.7,9.4v37.1c0,1.2-0.3,1.8-0.5,2.9c-0.2,0.3-0.2,0.5-0.3,0.8v0.2c-0.5,1.5-1.5,2.9-3.2,4
				c-10.6,8.2-23.8,13.1-38.1,13.1C735.6,382.3,707.8,355.6,707.8,322z"/>
		</g>
	</g>
	<g>
		<g>
			<path fill="#11B44C" stroke="#11B44C" stroke-miterlimit="10" d="M359.7,164.9h-53.1v44.6c0,1.9-1.6,3.5-3.7,3.5
				c-1.9,0-3.5-1.6-3.5-3.5v-96.2c0-1.9,1.6-3.5,3.5-3.5c2.1,0,3.7,1.6,3.7,3.5v44.6h53.1v-44.6c0-1.9,1.6-3.5,3.5-3.5
				c2.1,0,3.7,1.6,3.7,3.5v96.2c0,1.9-1.6,3.5-3.7,3.5c-1.9,0-3.5-1.6-3.5-3.5V164.9z"/>
			<path fill="#11B44C" stroke="#11B44C" stroke-miterlimit="10" d="M471.6,186.3h-47.1l-9.2,24.4c-0.6,1.5-1.9,2.4-3.4,2.4
				c-0.3,0-0.9-0.1-1.3-0.1c-1.8-0.7-2.8-3-2.1-4.7l35.9-95.8c0.6-1.3,2.1-2.2,3.5-2.2c1.6,0,3.1,0.9,3.5,2.2l35.9,95.8
				c0.7,1.8-0.1,4-1.9,4.7c-0.6,0-0.9,0.1-1.3,0.1c-1.3,0-2.8-0.9-3.4-2.4L471.6,186.3z M427.2,179.1h41.8l-20.8-55.5L427.2,179.1z"
				/>
			<path fill="#11B44C" stroke="#11B44C" stroke-miterlimit="10" d="M582.5,189.7c0-7.5-3.8-12.3-8.4-15.6c-4.6-3.2-10-4.9-12-5.2
				c-0.4-0.1-0.6-0.3-0.7-0.3h-25.1v40.9c0,1.9-1.6,3.5-3.7,3.5c-1.9,0-3.5-1.6-3.5-3.5v-96.2c0-1.8,1.5-3.4,3.2-3.5h0.3h0.4h28.8
				c16.2,0,29.4,13.1,29.4,29.5c0,11.8-6.9,22-17,26.7c0.4,0.3,0.9,0.4,1.5,0.7c6.8,3.8,13.9,11.4,13.9,23c0,6.1,0.6,9.7,1.3,12
				c0.6,1.8,1.3,2.4,1.5,2.5c1.6-0.1,3.4,0.7,4,2.4c0.4,1.9-0.4,4-2.4,4.7c-0.1,0-0.9,0.1-1.8,0.1h-0.3c-1.9,0-5-1.5-6.6-4.7
				C583.5,203.3,582.5,198.5,582.5,189.7z M561.8,117h-25.5v44.6H561h1.3c12-0.3,21.7-10.2,21.7-22.3C584.1,126.9,574,117,561.8,117
				z"/>
			<path fill="#11B44C" stroke="#11B44C" stroke-miterlimit="10" d="M644,113.3c0-1.9,1.6-3.5,3.5-3.5h0.4h28.8
				c16.2,0,29.4,13.3,29.4,29.5s-13.1,29.4-29.4,29.4l-25.5,0.3v40.6c0,1.9-1.6,3.5-3.7,3.5c-1.9,0-3.5-1.6-3.5-3.5V113.3z
				 M676.8,161.7c12.3-0.1,22.3-10.2,22.3-22.4c0-12.3-10-22.3-22.3-22.3h-25.5v44.7H676.8z"/>
			<path fill="#11B44C" stroke="#11B44C" stroke-miterlimit="10" d="M796.9,186.3h-47.1l-9.2,24.4c-0.6,1.5-1.9,2.4-3.4,2.4
				c-0.3,0-0.9-0.1-1.3-0.1c-1.8-0.7-2.8-3-2.1-4.7l35.9-95.8c0.6-1.3,2.1-2.2,3.5-2.2c1.6,0,3.1,0.9,3.5,2.2l35.9,95.8
				c0.7,1.8-0.1,4-1.9,4.7c-0.6,0-0.9,0.1-1.3,0.1c-1.3,0-2.8-0.9-3.4-2.4L796.9,186.3z M752.5,179.1h41.8l-20.8-55.5L752.5,179.1z"
				/>
		</g>
		<g>
			<path fill="#11B44C" stroke="#11B44C" stroke-width="7" stroke-miterlimit="10" d="M340.7,334.6h-20.6V371c0,5-4.2,9.2-9.4,9.2
				c-5,0-9.2-4.2-9.2-9.2v-99c0-5.2,4.2-9.2,9.2-9.2h0.2h29.9c20,0,36.1,16.1,36.1,36.1C376.8,318.5,360.7,334.6,340.7,334.6z
				 M320.1,316h20.6c9.7,0,17.3-7.7,17.5-17.1c-0.2-9.7-7.7-17.5-17.5-17.5h-20.6V316z"/>
			<path fill="#11B44C" stroke="#11B44C" stroke-width="7" stroke-miterlimit="10" d="M510.4,277.4c10.4,11.1,17,25.8,17,42.5
				s-6.5,31.6-17,42.5c-9.9,10.9-24.7,18-40.1,18c-16.1,0-30.9-7-41.1-18c-10.4-10.9-16.6-25.8-16.6-42.5s6.2-31.4,16.6-42.5
				c10.2-11.1,25-18,41.1-18C485.7,259.4,500.5,266.3,510.4,277.4z M508.2,319.8c0-11.4-4.5-22-11.4-29.4
				c-7-7.6-16.4-11.9-26.5-11.9c-10.7,0-20.1,4.4-27.2,11.9c-7,7.4-11.4,18-11.4,29.4c0,11.4,4.4,22,11.4,29.2
				c7,7.6,16.4,12.1,27.2,12.1c10.1,0,19.5-4.5,26.5-12.1C503.7,341.8,508.2,331.3,508.2,319.8z"/>
			<path fill="#11B44C" stroke="#11B44C" stroke-width="7" stroke-miterlimit="10" d="M593,371c0,5-4.2,9.2-9.1,9.2
				c-5.2,0-9.2-4.2-9.2-9.2v-97.5c0,0,0,0,0-0.2c-0.2-2.9,1.2-5.9,3.7-7.7c4.2-2.9,9.9-2,12.8,2l54.2,75v-69.1c0-4.9,4-9.1,9.1-9.1
				c5,0,9.2,4.2,9.2,9.1V371c0,5-4.2,9.2-9.2,9.2c-2.7,0-5.2-1.3-6.9-3.4c-0.3-0.3-0.7-0.7-0.8-1L593,301.4V371z"/>
			<path fill="#11B44C" stroke="#11B44C" stroke-width="7" stroke-miterlimit="10" d="M708.8,320c0-33.7,27.9-60.6,61.9-60.6
				c14.3,0,27.9,4.9,38.3,13.1c4.4,3.2,5,9.4,1.8,13.6c-3.2,4-9.4,4.9-13.6,1.5c-7.2-5.5-16.4-9.1-26.5-9.1
				c-12.1,0-22.7,4.5-30.2,12.3c-7.9,7.6-12.6,17.8-12.6,29.2c0,11.1,4.7,21.3,12.6,28.9c7.6,7.7,18.1,12.3,30.2,12.3
				c8.4,0,16.3-2.5,23-6.4v-23h-24c-5.2,0-9.6-4.4-9.6-9.6c0-5.4,4.4-9.4,9.6-9.4h33.1c0.2,0,0.2,0,0.2,0c0.2,0,0.2,0,0.2,0
				c5.4,0,9.7,4,9.7,9.4v37.1c0,1.2-0.3,1.8-0.5,2.9c-0.2,0.3-0.2,0.5-0.3,0.8v0.2c-0.5,1.5-1.5,2.9-3.2,4
				c-10.6,8.2-23.8,13.1-38.1,13.1C736.6,380.3,708.8,353.6,708.8,320z"/>
		</g>
	</g>
</g>
</svg>
