<?xml version="1.0" encoding="utf-8"?>
<!-- Generator: Adobe Illustrator 18.0.0, SVG Export Plug-In . SVG Version: 6.00 Build 0)  -->
<!DOCTYPE svg PUBLIC "-//W3C//DTD SVG 1.1//EN" "http://www.w3.org/Graphics/SVG/1.1/DTD/svg11.dtd">
<svg version="1.1" id="Layer_1" xmlns="http://www.w3.org/2000/svg" xmlns:xlink="http://www.w3.org/1999/xlink" x="0px" y="0px"
	 viewBox="0 0 965 595.3" enable-background="new 0 0 965 595.3" xml:space="preserve">
<g id="Layer_4">
</g>
<g id="Layer_2" display="none">
	<g display="inline" enable-background="new    ">
		<path fill="#EC1846" d="M383.4,342.5c0,14.6-4.3,25.8-12.9,33.8c-8.6,7.9-20.7,11.9-36.5,11.9H324v43.2h-35.2V301.1H334
			c16.5,0,28.8,3.6,37,10.8C379.3,319,383.4,329.3,383.4,342.5z M324.1,359.5h6.5c5.3,0,9.5-1.4,12.6-4.4c3.1-3,4.7-7,4.7-12.3
			c0-8.8-4.9-13.2-14.7-13.2h-9.1L324.1,359.5L324.1,359.5z"/>
		<path fill="#EC1846" d="M515.5,366c0,21.9-5.4,38.6-16.1,50S472.9,433,452.2,433c-20.4,0-36.1-5.7-47-17.2
			c-10.9-11.5-16.4-28.2-16.4-50.1c0-21.7,5.4-38.3,16.3-49.7c10.8-11.5,26.6-17.2,47.3-17.2c20.7,0,36.5,5.7,47.2,17
			C510.1,327.3,515.5,344,515.5,366z M425.9,366c0,25.2,8.8,37.8,26.3,37.8c8.9,0,15.5-3.1,19.9-9.2c4.3-6.1,6.5-15.6,6.5-28.6
			s-2.2-22.7-6.6-28.8c-4.3-6.2-10.9-9.4-19.6-9.4C434.7,327.9,425.9,340.6,425.9,366z"/>
		<path fill="#EC1846" d="M652.5,431.3h-46.2l-47.5-91.8H558c1.2,14.5,1.7,25.5,1.7,33.1v58.7h-31.2V301.1h46l47.4,90.6h0.6
			c-0.9-13.1-1.3-23.6-1.3-31.6v-58.9h31.3L652.5,431.3L652.5,431.3z"/>
		<path fill="#EC1846" d="M722.4,355h56.2v70.2c-15.2,5.2-32,7.8-50.3,7.8c-20.1,0-35.6-5.8-46.6-17.5c-11-11.7-16.4-28.3-16.4-49.9
			c0-21,6-37.4,18-49.1c12-11.7,28.8-17.6,50.4-17.6c8.2,0,15.9,0.8,23.2,2.3c7.2,1.5,13.6,3.5,19,5.9l-11.2,27.6
			c-9.4-4.6-19.7-6.9-31-6.9c-10.3,0-18.2,3.4-23.8,10c-5.6,6.7-8.4,16.2-8.4,28.6c0,12.2,2.5,21.5,7.6,27.9s12.4,9.5,22,9.5
			c5.2,0,10-0.5,14.5-1.5V382h-23.2L722.4,355L722.4,355z"/>
	</g>
	<g display="inline" enable-background="new    ">
		<path fill="#EC1846" d="M356.1,253.7h-6.6V208h-54.3v45.7h-6.5v-93.1h6.5v41.3h54.3v-41.3h6.6V253.7z"/>
		<path fill="#EC1846" d="M453.3,220.9h-37.8l-13,32.8h-7.2l37.4-93.4h4.1l36.6,93.4h-7.3L453.3,220.9z M417.8,215H451l-12.6-33.6
			c-1.1-2.6-2.3-6.3-3.9-10.9c-1.2,4.1-2.4,7.7-3.8,11.1L417.8,215z"/>
		<path fill="#EC1846" d="M519,213.2v40.5h-6.5v-93.1h22.2c11.6,0,20.1,2.1,25.6,6.4c5.5,4.2,8.3,10.7,8.3,19.3
			c0,6.3-1.6,11.5-4.9,15.8c-3.3,4.2-8.3,7.3-14.9,9.3l25.3,42.3h-7.7l-24-40.5H519z M519,207.6h17.7c7.8,0,13.9-1.7,18.2-5.2
			s6.5-8.7,6.5-15.5c0-7-2.1-12.2-6.4-15.4c-4.2-3.2-11.2-4.8-20.7-4.8h-15.4L519,207.6L519,207.6z"/>
		<path fill="#EC1846" d="M671.9,187.4c0,9-3.1,15.9-9.2,20.6c-6.1,4.8-14.8,7.2-25.9,7.2h-14.4v38.4h-6.5v-93.1h22.8
			C660.8,160.6,671.9,169.6,671.9,187.4z M622.4,209.6h12.8c10.5,0,18-1.7,22.8-5.2c4.6-3.5,7-9.1,7-16.8c0-7.1-2.2-12.4-6.7-15.9
			c-4.4-3.5-11.3-5.2-20.4-5.2h-15.4L622.4,209.6L622.4,209.6z"/>
		<path fill="#EC1846" d="M762.8,220.9H725l-13,32.8h-7.2l37.4-93.4h4.1l36.6,93.4h-7.3L762.8,220.9z M727.4,215h33.3l-12.6-33.6
			c-1.1-2.6-2.3-6.3-3.9-10.9c-1.2,4.1-2.4,7.7-3.8,11.1L727.4,215z"/>
	</g>
	<g display="inline" enable-background="new    ">
		<path fill="#F6D92A" d="M355.1,252.7h-6.6V207h-54.3v45.7h-6.5v-93h6.5V201h54.3v-41.3h6.6V252.7L355.1,252.7z"/>
		<path fill="#F6D92A" d="M452.1,219.9h-37.8l-13,32.8H394l37.4-93.4h4.1l36.6,93.4h-7.3L452.1,219.9z M416.7,214H450l-12.6-33.6
			c-1.1-2.6-2.3-6.3-3.9-10.9c-1.2,4.1-2.4,7.7-3.8,11.1L416.7,214z"/>
		<path fill="#F6D92A" d="M518,212.2v40.5h-6.5v-93h22.2c11.6,0,20.1,2.1,25.6,6.4c5.5,4.2,8.3,10.7,8.3,19.3
			c0,6.3-1.6,11.5-4.9,15.8c-3.3,4.2-8.3,7.3-14.9,9.3l25.3,42.3h-7.7l-24-40.5L518,212.2L518,212.2z M518,206.6h17.7
			c7.8,0,13.9-1.7,18.2-5.2c4.3-3.5,6.5-8.7,6.5-15.5c0-7-2.1-12.2-6.4-15.4c-4.2-3.2-11.2-4.8-20.7-4.8h-15.4L518,206.6L518,206.6z
			"/>
		<path fill="#F6D92A" d="M670.8,186.4c0,9-3.1,15.9-9.2,20.6c-6.1,4.8-14.8,7.2-25.9,7.2h-14.4v38.4h-6.5v-93h22.8
			C659.7,159.7,670.8,168.6,670.8,186.4z M621.3,208.7h12.8c10.5,0,18-1.7,22.8-5.2c4.6-3.5,7-9.1,7-16.8c0-7.1-2.2-12.4-6.7-15.9
			c-4.4-3.5-11.3-5.2-20.4-5.2h-15.4L621.3,208.7L621.3,208.7z"/>
		<path fill="#F6D92A" d="M761.8,219.9h-37.8l-13,32.8h-7.2l37.4-93.4h4.1l36.6,93.4h-7.3L761.8,219.9z M726.3,214h33.3l-12.6-33.6
			c-1.1-2.6-2.3-6.3-3.9-10.9c-1.2,4.1-2.4,7.7-3.8,11.1L726.3,214z"/>
	</g>
	<g display="inline" enable-background="new    ">
		<path fill="#FDEE57" d="M381.5,339.9c0,14.6-4.3,25.8-12.9,33.8c-8.6,7.9-20.7,11.9-36.5,11.9h-9.9v43.2h-35.2V298.4H332
			c16.5,0,28.8,3.6,37,10.8C377.4,316.4,381.5,326.7,381.5,339.9z M322.2,356.9h6.5c5.3,0,9.5-1.4,12.6-4.4c3.1-3,4.7-7,4.7-12.3
			c0-8.8-4.9-13.2-14.7-13.2h-9.1L322.2,356.9L322.2,356.9z"/>
		<path fill="#FDEE57" d="M513.6,363.4c0,21.9-5.4,38.6-16.1,50c-10.7,11.4-26.5,17.1-47.3,17.1c-20.4,0-36.1-5.7-47-17.2
			c-10.9-11.5-16.4-28.2-16.4-50.1c0-21.7,5.4-38.3,16.3-49.7c10.8-11.5,26.6-17.2,47.3-17.2c20.7,0,36.5,5.7,47.2,17
			C508.2,324.7,513.6,341.4,513.6,363.4z M423.9,363.4c0,25.2,8.8,37.8,26.3,37.8c8.9,0,15.5-3.1,19.9-9.2s6.5-15.6,6.5-28.6
			s-2.2-22.7-6.6-28.8c-4.3-6.2-10.9-9.4-19.6-9.4C432.8,325.2,423.9,338,423.9,363.4z"/>
		<path fill="#FDEE57" d="M650.6,428.7h-46.2l-47.5-91.8h-0.8c1.2,14.5,1.7,25.5,1.7,33.1v58.7h-31.2V298.4h46L620,389h0.6
			c-0.9-13.1-1.3-23.6-1.3-31.6v-58.9h31.3L650.6,428.7L650.6,428.7z"/>
		<path fill="#FDEE57" d="M720.5,352.4h56.2v70.2c-15.2,5.2-32,7.8-50.3,7.8c-20.1,0-35.6-5.8-46.6-17.5
			c-11-11.7-16.4-28.3-16.4-49.9c0-21,6-37.4,18-49.1c12-11.7,28.8-17.6,50.4-17.6c8.2,0,15.9,0.8,23.2,2.3c7.2,1.5,13.6,3.5,19,5.9
			l-11.2,27.7c-9.4-4.6-19.7-6.9-31-6.9c-10.3,0-18.2,3.4-23.8,10c-5.6,6.7-8.4,16.2-8.4,28.6c0,12.2,2.5,21.5,7.6,27.9
			c5.1,6.4,12.4,9.5,22,9.5c5.2,0,10-0.5,14.5-1.5v-20.3h-23.2L720.5,352.4L720.5,352.4z"/>
	</g>
</g>
<g id="Layer_1_1_">
	<g>
		<line fill="none" stroke="#11B44C" stroke-width="7.381" stroke-miterlimit="10" x1="22.6" y1="167.9" x2="52.3" y2="445.5"/>
		<polygon fill="none" stroke="#11B44C" stroke-width="7.381" stroke-miterlimit="10" points="118.6,127.5 196.9,172.7 196.9,431.3 
			92.6,471.6 52.3,445.5 22.6,167.9 		"/>
		<line fill="none" stroke="#11B44C" stroke-width="7.381" stroke-miterlimit="10" x1="22.6" y1="167.9" x2="118.6" y2="127.5"/>
		<line fill="none" stroke="#11B44C" stroke-width="7.381" stroke-miterlimit="10" x1="118.6" y1="127.5" x2="196.9" y2="172.7"/>
		<line fill="none" stroke="#11B44C" stroke-width="7.381" stroke-miterlimit="10" x1="196.9" y1="172.7" x2="196.9" y2="431.3"/>
		<line fill="none" stroke="#11B44C" stroke-width="7.381" stroke-miterlimit="10" x1="92.6" y1="471.6" x2="196.9" y2="431.3"/>
	</g>
	<g>
		<g>
			<line fill="none" stroke="#11B44C" stroke-width="7" stroke-miterlimit="10" x1="23.3" y1="165.4" x2="52.9" y2="443.1"/>
			<polygon fill="none" stroke="#11B44C" stroke-width="7" stroke-miterlimit="10" points="119.4,125.1 197.7,170.2 197.7,428.8 
				93.4,469.2 52.9,443.1 23.3,165.4 			"/>
			<line fill="none" stroke="#11B44C" stroke-width="7" stroke-miterlimit="10" x1="23.3" y1="165.4" x2="119.4" y2="125.1"/>
			<line fill="none" stroke="#11B44C" stroke-width="7" stroke-miterlimit="10" x1="119.4" y1="125.1" x2="197.7" y2="170.2"/>
			<line fill="none" stroke="#11B44C" stroke-width="7" stroke-miterlimit="10" x1="197.7" y1="170.2" x2="197.7" y2="428.8"/>
			<line fill="none" stroke="#11B44C" stroke-width="7" stroke-miterlimit="10" x1="93.4" y1="469.2" x2="197.7" y2="428.8"/>
		</g>
		<g>
			<line fill="none" stroke="#11B44C" stroke-width="7" stroke-miterlimit="10" x1="24.5" y1="161.9" x2="54.2" y2="439.5"/>
			<polygon fill="none" stroke="#11B44C" stroke-width="7" stroke-miterlimit="10" points="120.5,121.5 198.9,166.7 198.9,425.2 
				94.5,465.6 54.2,439.5 24.5,161.9 			"/>
			<line fill="none" stroke="#11B44C" stroke-width="7" stroke-miterlimit="10" x1="24.5" y1="161.9" x2="120.5" y2="121.5"/>
			<line fill="none" stroke="#11B44C" stroke-width="7" stroke-miterlimit="10" x1="120.5" y1="121.5" x2="198.9" y2="166.7"/>
			<line fill="none" stroke="#11B44C" stroke-width="7" stroke-miterlimit="10" x1="198.9" y1="166.7" x2="198.9" y2="425.2"/>
			<line fill="none" stroke="#11B44C" stroke-width="7" stroke-miterlimit="10" x1="94.5" y1="465.6" x2="198.9" y2="425.2"/>
		</g>
	</g>
	<g>
		<circle fill="#FFFFFF" stroke="#FBB11C" stroke-width="7.381" stroke-miterlimit="10" cx="198.9" cy="159.2" r="28.9"/>
		<circle fill="#FFFFFF" stroke="#F400AF" stroke-width="7.381" stroke-miterlimit="10" cx="202" cy="156.6" r="28.9"/>
	</g>
	<g>
		<circle fill="#11B44C" stroke="#11B44C" stroke-width="7" stroke-miterlimit="10" cx="203.9" cy="154.1" r="28.9"/>
		<circle fill="#11B44C" stroke="#11B44C" stroke-width="7" stroke-miterlimit="10" cx="207" cy="151.5" r="28.9"/>
	</g>
	<g>
		<path fill="none" stroke="#11B44C" stroke-width="7" stroke-miterlimit="10" d="M177.9,196.1c-1.3,0.3-2.6,0.4-4,0.4
			c-11,0-20-9-20-20c0-4.5,1.5-8.7,4.1-12.1"/>
		<path fill="none" stroke="#11B44C" stroke-width="7" stroke-miterlimit="10" d="M181,195.2c-1,0.4-2,0.7-3.1,0.9"/>
	</g>
	<g>
		<path fill="none" stroke="#11B44C" stroke-width="7" stroke-miterlimit="10" d="M159.5,210.8c-1.3,0.3-2.6,0.4-4,0.4
			c-11,0-20-9-20-20c0-4.5,1.5-8.7,4.1-12.1"/>
		<path fill="#FFFFFF" stroke="#231F20" stroke-width="5.099" stroke-miterlimit="10" d="M162.6,210c-1,0.4-2,0.7-3.1,0.9"/>
	</g>
</g>
<g id="Layer_3">
	<g>
		<g>
			<path fill="#737573" stroke="#737573" stroke-miterlimit="10" d="M345.9,227.1h-51.2v43c0,1.8-1.5,3.4-3.6,3.4
				c-1.8,0-3.4-1.5-3.4-3.4v-92.8c0-1.8,1.5-3.4,3.4-3.4c2,0,3.6,1.5,3.6,3.4v43h51.2v-43c0-1.8,1.5-3.4,3.4-3.4
				c2,0,3.6,1.5,3.6,3.4v92.8c0,1.8-1.5,3.4-3.6,3.4c-1.8,0-3.4-1.5-3.4-3.4V227.1z"/>
			<path fill="#737573" stroke="#737573" stroke-miterlimit="10" d="M453.8,247.8h-45.4l-8.9,23.5c-0.6,1.4-1.8,2.3-3.3,2.3
				c-0.3,0-0.9-0.1-1.3-0.1c-1.7-0.7-2.7-2.9-2-4.5l34.6-92.4c0.6-1.3,2-2.1,3.4-2.1c1.5,0,3,0.9,3.4,2.1L469,269
				c0.7,1.7-0.1,3.9-1.8,4.5c-0.6,0-0.9,0.1-1.3,0.1c-1.3,0-2.7-0.9-3.3-2.3L453.8,247.8z M411,240.8h40.3l-20.1-53.5L411,240.8z"/>
			<path fill="#737573" stroke="#737573" stroke-miterlimit="10" d="M560.8,251.1c0-7.2-3.7-11.9-8.1-15c-4.4-3.1-9.6-4.7-11.6-5
				c-0.4-0.1-0.6-0.3-0.7-0.3h-24.2v39.4c0,1.8-1.5,3.4-3.6,3.4c-1.8,0-3.4-1.5-3.4-3.4v-92.8c0-1.7,1.4-3.3,3.1-3.4h0.3h0.4h27.8
				c15.6,0,28.4,12.6,28.4,28.4c0,11.4-6.7,21.2-16.4,25.7c0.4,0.3,0.9,0.4,1.4,0.7c6.6,3.7,13.4,11,13.4,22.2
				c0,5.9,0.6,9.4,1.3,11.6c0.6,1.7,1.3,2.3,1.4,2.4c1.5-0.1,3.3,0.7,3.9,2.3c0.4,1.8-0.4,3.9-2.3,4.5c-0.1,0-0.9,0.1-1.7,0.1h-0.3
				c-1.8,0-4.8-1.4-6.4-4.5C561.7,264.2,560.8,259.5,560.8,251.1z M540.8,181h-24.6v43H540h1.3c11.6-0.3,20.9-9.8,20.9-21.5
				C562.3,190.5,552.6,181,540.8,181z"/>
			<path fill="#737573" stroke="#737573" stroke-miterlimit="10" d="M620.1,177.4c0-1.8,1.5-3.4,3.4-3.4h0.4h27.8
				c15.6,0,28.4,12.8,28.4,28.4s-12.6,28.4-28.4,28.4l-24.6,0.3v39.2c0,1.8-1.5,3.4-3.6,3.4c-1.8,0-3.4-1.5-3.4-3.4V177.4z
				 M651.7,224.1c11.9-0.1,21.5-9.8,21.5-21.6c0-11.9-9.6-21.5-21.5-21.5h-24.6v43.1H651.7z"/>
			<path fill="#737573" stroke="#737573" stroke-miterlimit="10" d="M767.5,247.8h-45.4l-8.9,23.5c-0.6,1.4-1.8,2.3-3.3,2.3
				c-0.3,0-0.9-0.1-1.3-0.1c-1.7-0.7-2.7-2.9-2-4.5l34.6-92.4c0.6-1.3,2-2.1,3.4-2.1c1.5,0,3,0.9,3.4,2.1l34.6,92.4
				c0.7,1.7-0.1,3.9-1.8,4.5c-0.6,0-0.9,0.1-1.3,0.1c-1.3,0-2.7-0.9-3.3-2.3L767.5,247.8z M724.7,240.8H765L745,187.3L724.7,240.8z"
				/>
		</g>
		<g>
			<path fill="#737573" stroke="#737573" stroke-width="7" stroke-miterlimit="10" d="M327.6,390.8h-19.9v35.1
				c0,4.8-4.1,8.9-9.1,8.9c-4.8,0-8.9-4.1-8.9-8.9v-95.5c0-5,4.1-8.9,8.9-8.9h0.2h28.8c19.3,0,34.8,15.5,34.8,34.8
				C362.4,375.3,346.9,390.8,327.6,390.8z M307.7,372.9h19.9c9.4,0,16.7-7.4,16.9-16.5c-0.2-9.4-7.4-16.9-16.9-16.9h-19.9V372.9z"/>
			<path fill="#737573" stroke="#737573" stroke-width="7" stroke-miterlimit="10" d="M491.2,335.6c10,10.7,16.4,24.9,16.4,41
				c0,16.1-6.3,30.5-16.4,41c-9.5,10.5-23.8,17.4-38.7,17.4c-15.5,0-29.8-6.8-39.6-17.4c-10-10.5-16-24.9-16-41c0-16.1,6-30.3,16-41
				c9.8-10.7,24.1-17.4,39.6-17.4C467.4,318.3,481.7,324.9,491.2,335.6z M489.1,376.5c0-11-4.3-21.2-11-28.4
				c-6.8-7.3-15.8-11.5-25.6-11.5c-10.3,0-19.4,4.2-26.2,11.5c-6.8,7.1-11,17.4-11,28.4s4.2,21.2,11,28.2
				c6.8,7.3,15.8,11.7,26.2,11.7c9.7,0,18.8-4.3,25.6-11.7C484.8,397.7,489.1,387.6,489.1,376.5z"/>
			<path fill="#737573" stroke="#737573" stroke-width="7" stroke-miterlimit="10" d="M570.9,425.9c0,4.8-4.1,8.9-8.8,8.9
				c-5,0-8.9-4.1-8.9-8.9v-94c0,0,0,0,0-0.2c-0.2-2.8,1.2-5.7,3.6-7.4c4.1-2.8,9.5-1.9,12.3,1.9l52.3,72.3v-66.6
				c0-4.7,3.9-8.8,8.8-8.8c4.8,0,8.9,4.1,8.9,8.8v94c0,4.8-4.1,8.9-8.9,8.9c-2.6,0-5-1.3-6.7-3.3c-0.3-0.3-0.7-0.7-0.8-1l-51.9-71.7
				V425.9z"/>
			<path fill="#737573" stroke="#737573" stroke-width="7" stroke-miterlimit="10" d="M682.6,376.7c0-32.5,26.9-58.4,59.7-58.4
				c13.8,0,26.9,4.7,36.9,12.6c4.2,3.1,4.8,9.1,1.7,13.1c-3.1,3.9-9.1,4.7-13.1,1.4c-6.9-5.3-15.8-8.8-25.6-8.8
				c-11.7,0-21.9,4.3-29.1,11.9c-7.6,7.3-12.2,17.2-12.2,28.2c0,10.7,4.5,20.5,12.2,27.9c7.3,7.4,17.5,11.9,29.1,11.9
				c8.1,0,15.7-2.4,22.2-6.2v-22.2h-23.1c-5,0-9.3-4.2-9.3-9.3c0-5.2,4.2-9.1,9.3-9.1h31.9c0.2,0,0.2,0,0.2,0c0.2,0,0.2,0,0.2,0
				c5.2,0,9.4,3.9,9.4,9.1v35.8c0,1.2-0.3,1.7-0.5,2.8c-0.2,0.3-0.2,0.5-0.3,0.8v0.2c-0.5,1.4-1.4,2.8-3.1,3.9
				c-10.2,7.9-23,12.6-36.7,12.6C709.4,434.9,682.6,409.1,682.6,376.7z"/>
		</g>
	</g>
	<g>
		<g>
			<path fill="#11B44C" stroke="#11B44C" stroke-miterlimit="10" d="M346.9,225.2h-51.2v43c0,1.8-1.5,3.4-3.6,3.4
				c-1.8,0-3.4-1.5-3.4-3.4v-92.8c0-1.8,1.5-3.4,3.4-3.4c2,0,3.6,1.5,3.6,3.4v43h51.2v-43c0-1.8,1.5-3.4,3.4-3.4
				c2,0,3.6,1.5,3.6,3.4v92.8c0,1.8-1.5,3.4-3.6,3.4c-1.8,0-3.4-1.5-3.4-3.4V225.2z"/>
			<path fill="#11B44C" stroke="#11B44C" stroke-miterlimit="10" d="M454.8,245.9h-45.4l-8.9,23.5c-0.6,1.4-1.8,2.3-3.3,2.3
				c-0.3,0-0.9-0.1-1.3-0.1c-1.7-0.7-2.7-2.9-2-4.5l34.6-92.4c0.6-1.3,2-2.1,3.4-2.1c1.5,0,3,0.9,3.4,2.1l34.6,92.4
				c0.7,1.7-0.1,3.9-1.8,4.5c-0.6,0-0.9,0.1-1.3,0.1c-1.3,0-2.7-0.9-3.3-2.3L454.8,245.9z M412,238.9h40.3l-20.1-53.5L412,238.9z"/>
			<path fill="#11B44C" stroke="#11B44C" stroke-miterlimit="10" d="M561.7,249.1c0-7.2-3.7-11.9-8.1-15c-4.4-3.1-9.6-4.7-11.6-5
				c-0.4-0.1-0.6-0.3-0.7-0.3h-24.2v39.4c0,1.8-1.5,3.4-3.6,3.4c-1.8,0-3.4-1.5-3.4-3.4v-92.8c0-1.7,1.4-3.3,3.1-3.4h0.3h0.4h27.8
				c15.6,0,28.4,12.6,28.4,28.4c0,11.4-6.7,21.2-16.4,25.7c0.4,0.3,0.9,0.4,1.4,0.7c6.6,3.7,13.4,11,13.4,22.2
				c0,5.9,0.6,9.4,1.3,11.6c0.6,1.7,1.3,2.3,1.4,2.4c1.5-0.1,3.3,0.7,3.9,2.3c0.4,1.8-0.4,3.9-2.3,4.5c-0.1,0-0.9,0.1-1.7,0.1h-0.3
				c-1.8,0-4.8-1.4-6.4-4.5C562.7,262.2,561.7,257.6,561.7,249.1z M541.8,179h-24.6v43H541h1.3c11.6-0.3,20.9-9.8,20.9-21.5
				C563.3,188.6,553.5,179,541.8,179z"/>
			<path fill="#11B44C" stroke="#11B44C" stroke-miterlimit="10" d="M621.1,175.5c0-1.8,1.5-3.4,3.4-3.4h0.4h27.8
				c15.6,0,28.4,12.8,28.4,28.4s-12.6,28.4-28.4,28.4l-24.6,0.3v39.2c0,1.8-1.5,3.4-3.6,3.4c-1.8,0-3.4-1.5-3.4-3.4V175.5z
				 M652.7,222.1c11.9-0.1,21.5-9.8,21.5-21.6c0-11.9-9.6-21.5-21.5-21.5h-24.6v43.1H652.7z"/>
			<path fill="#11B44C" stroke="#11B44C" stroke-miterlimit="10" d="M768.5,245.9h-45.4l-8.9,23.5c-0.6,1.4-1.8,2.3-3.3,2.3
				c-0.3,0-0.9-0.1-1.3-0.1c-1.7-0.7-2.7-2.9-2-4.5l34.6-92.4c0.6-1.3,2-2.1,3.4-2.1c1.5,0,3,0.9,3.4,2.1l34.6,92.4
				c0.7,1.7-0.1,3.9-1.8,4.5c-0.6,0-0.9,0.1-1.3,0.1c-1.3,0-2.7-0.9-3.3-2.3L768.5,245.9z M725.7,238.9H766l-20.1-53.5L725.7,238.9z
				"/>
		</g>
		<g>
			<path fill="#11B44C" stroke="#11B44C" stroke-width="7" stroke-miterlimit="10" d="M328.6,388.9h-19.9V424c0,4.8-4.1,8.9-9.1,8.9
				c-4.8,0-8.9-4.1-8.9-8.9v-95.5c0-5,4.1-8.9,8.9-8.9h0.2h28.8c19.3,0,34.8,15.5,34.8,34.8C363.4,373.3,347.8,388.9,328.6,388.9z
				 M308.7,370.9h19.9c9.4,0,16.7-7.4,16.9-16.5c-0.2-9.4-7.4-16.9-16.9-16.9h-19.9V370.9z"/>
			<path fill="#11B44C" stroke="#11B44C" stroke-width="7" stroke-miterlimit="10" d="M492.2,333.7c10,10.7,16.4,24.9,16.4,41
				s-6.3,30.5-16.4,41c-9.5,10.5-23.8,17.4-38.7,17.4c-15.5,0-29.8-6.8-39.6-17.4c-10-10.5-16-24.9-16-41s6-30.3,16-41
				c9.8-10.7,24.1-17.4,39.6-17.4C468.4,316.3,482.7,323,492.2,333.7z M490.1,374.6c0-11-4.3-21.2-11-28.4
				c-6.8-7.3-15.8-11.5-25.6-11.5c-10.3,0-19.4,4.2-26.2,11.5c-6.8,7.1-11,17.4-11,28.4c0,11,4.2,21.2,11,28.2
				c6.8,7.3,15.8,11.7,26.2,11.7c9.7,0,18.8-4.3,25.6-11.7C485.8,395.8,490.1,385.7,490.1,374.6z"/>
			<path fill="#11B44C" stroke="#11B44C" stroke-width="7" stroke-miterlimit="10" d="M571.9,424c0,4.8-4.1,8.9-8.8,8.9
				c-5,0-8.9-4.1-8.9-8.9v-94c0,0,0,0,0-0.2c-0.2-2.8,1.2-5.7,3.6-7.4c4.1-2.8,9.5-1.9,12.3,1.9l52.3,72.3v-66.6
				c0-4.7,3.9-8.8,8.8-8.8c4.8,0,8.9,4.1,8.9,8.8v94c0,4.8-4.1,8.9-8.9,8.9c-2.6,0-5-1.3-6.7-3.3c-0.3-0.3-0.7-0.7-0.8-1l-51.9-71.7
				V424z"/>
			<path fill="#11B44C" stroke="#11B44C" stroke-width="7" stroke-miterlimit="10" d="M683.5,374.8c0-32.5,26.9-58.4,59.7-58.4
				c13.8,0,26.9,4.7,36.9,12.6c4.2,3.1,4.8,9.1,1.7,13.1c-3.1,3.9-9.1,4.7-13.1,1.4c-6.9-5.3-15.8-8.8-25.6-8.8
				c-11.7,0-21.9,4.3-29.1,11.9c-7.6,7.3-12.2,17.2-12.2,28.2c0,10.7,4.5,20.5,12.2,27.9c7.3,7.4,17.5,11.9,29.1,11.9
				c8.1,0,15.7-2.4,22.2-6.2v-22.2h-23.1c-5,0-9.3-4.2-9.3-9.3c0-5.2,4.2-9.1,9.3-9.1h31.9c0.2,0,0.2,0,0.2,0c0.2,0,0.2,0,0.2,0
				c5.2,0,9.4,3.9,9.4,9.1v35.8c0,1.2-0.3,1.7-0.5,2.8c-0.2,0.3-0.2,0.5-0.3,0.8v0.2c-0.5,1.4-1.4,2.8-3.1,3.9
				c-10.2,7.9-23,12.6-36.7,12.6C710.4,432.9,683.5,407.2,683.5,374.8z"/>
		</g>
	</g>
</g>
<g>
	<g>
		<g>
			<path fill="#737573" d="M838.7,309.9h-36.3c-3.8,0-6.8-2.8-6.8-6.6c0-3.8,3-6.8,6.8-6.8h36.3v-36.3c0-3.6,2.8-6.6,6.6-6.6
				s6.8,3,6.8,6.6v36.3h36.3c3.6,0,6.6,3,6.6,6.8c0,3.8-3,6.6-6.6,6.6H852v36.3c0,3.8-3,6.8-6.8,6.8s-6.6-3-6.6-6.8V309.9z"/>
			<path fill="#737573" d="M845.2,358c-6.5,0-11.5-5.1-11.5-11.7v-31.4h-31.4c-6.6,0-11.7-5.1-11.7-11.5c0-6.5,5.3-11.7,11.7-11.7
				h31.4v-31.4c0-6.5,5.1-11.5,11.5-11.5c6.5,0,11.7,5.2,11.7,11.5v31.4h31.4c6.4,0,11.5,5.3,11.5,11.7c0,6.5-5.1,11.5-11.5,11.5
				H857v31.4C857,352.7,851.7,358,845.2,358z M802.3,301.6c-1,0-1.8,0.7-1.8,1.8c0,1.2,1,1.6,1.8,1.6h41.3v41.3
				c0,0.8,0.4,1.8,1.6,1.8c1,0,1.8-0.8,1.8-1.8v-41.3h41.3c0.8,0,1.6-0.5,1.6-1.6c0-1-0.7-1.8-1.6-1.8H847v-41.3
				c0-0.9-0.8-1.6-1.8-1.6c-1.1,0-1.6,0.8-1.6,1.6v41.3H802.3z"/>
		</g>
	</g>
	<g>
		<g>
			<path fill="#11B44C" d="M840,308.5h-36.3c-3.8,0-6.8-2.8-6.8-6.6c0-3.8,3-6.8,6.8-6.8H840v-36.3c0-3.6,2.8-6.6,6.6-6.6
				s6.8,3,6.8,6.6v36.3h36.3c3.6,0,6.6,3,6.6,6.8c0,3.8-3,6.6-6.6,6.6h-36.3v36.3c0,3.8-3,6.8-6.8,6.8s-6.6-3-6.6-6.8V308.5z"/>
			<path fill="#11B44C" d="M846.6,356.6c-6.5,0-11.5-5.1-11.5-11.7v-31.4h-31.4c-6.6,0-11.7-5.1-11.7-11.5c0-6.5,5.3-11.7,11.7-11.7
				h31.4v-31.4c0-6.5,5.1-11.5,11.5-11.5c6.5,0,11.7,5.2,11.7,11.5v31.4h31.4c6.4,0,11.5,5.3,11.5,11.7c0,6.5-5.1,11.5-11.5,11.5
				h-31.4v31.4C858.3,351.3,853,356.6,846.6,356.6z M803.7,300.2c-1,0-1.8,0.7-1.8,1.8c0,1.2,1,1.6,1.8,1.6H845v41.3
				c0,0.8,0.4,1.8,1.6,1.8c1,0,1.8-0.8,1.8-1.8v-41.3h41.3c0.8,0,1.6-0.5,1.6-1.6c0-1-0.7-1.8-1.6-1.8h-41.3v-41.3
				c0-0.9-0.8-1.6-1.8-1.6c-1.1,0-1.6,0.8-1.6,1.6v41.3H803.7z"/>
		</g>
	</g>
</g>
</svg>
