<?xml version="1.0" encoding="utf-8"?>
<!-- Generator: Adobe Illustrator 17.0.0, SVG Export Plug-In . SVG Version: 6.00 Build 0)  -->
<!DOCTYPE svg PUBLIC "-//W3C//DTD SVG 1.1//EN" "http://www.w3.org/Graphics/SVG/1.1/DTD/svg11.dtd">
<svg version="1.1" id="Layer_1" xmlns="http://www.w3.org/2000/svg" xmlns:xlink="http://www.w3.org/1999/xlink" x="0px" y="0px"
	 width="873px" height="480px" viewBox="0 0 873 480" enable-background="new 0 0 873 480" xml:space="preserve">
<g>
	<g>
		<g enable-background="new    ">
			<path fill="#EC1846" d="M397.616,286.521c0,15.094-4.451,26.751-13.352,34.975c-8.902,8.224-21.545,12.336-37.931,12.336h-10.257
				v44.814h-36.499V243.554h46.755c17.062,0,29.876,3.729,38.439,11.181C393.334,262.189,397.616,272.785,397.616,286.521z
				 M336.077,304.077h6.653c5.482,0,9.841-1.539,13.075-4.62c3.234-3.079,4.851-7.33,4.851-12.751
				c0-9.116-5.052-13.676-15.154-13.676h-9.425V304.077z"/>
			<path fill="#EC1846" d="M534.575,310.915c0,22.73-5.576,40.01-16.725,51.837c-11.15,11.828-27.476,17.741-48.973,17.741
				c-21.192,0-37.439-5.943-48.742-17.833c-11.305-11.889-16.956-29.199-16.956-51.93c0-22.484,5.621-39.655,16.863-51.515
				c11.241-11.857,27.582-17.787,49.019-17.787c21.498,0,37.792,5.884,48.88,17.648
				C529.031,270.845,534.575,288.124,534.575,310.915z M441.619,310.915c0,26.119,9.086,39.179,27.259,39.179
				c9.24,0,16.092-3.173,20.559-9.518c4.466-6.344,6.699-16.231,6.699-29.661c0-13.49-2.264-23.454-6.791-29.892
				c-4.528-6.437-11.289-9.656-20.282-9.656C450.767,271.367,441.619,284.55,441.619,310.915z"/>
			<path fill="#EC1846" d="M676.617,378.646h-47.864l-49.343-95.174h-0.831c1.169,14.969,1.755,26.396,1.755,34.281v60.893h-32.34
				V243.554h47.679l49.158,93.881h0.554c-0.863-13.613-1.293-24.547-1.293-32.803v-61.078h32.525V378.646z"/>
			<path fill="#EC1846" d="M749.08,299.55h58.305v72.812c-15.832,5.421-33.234,8.131-52.207,8.131
				c-20.822,0-36.914-6.036-48.279-18.11c-11.365-12.073-17.048-29.291-17.048-51.652c0-21.807,6.221-38.777,18.665-50.914
				c12.442-12.135,29.877-18.203,52.299-18.203c8.502,0,16.525,0.802,24.07,2.403c7.547,1.603,14.123,3.635,19.729,6.098
				l-11.551,28.645c-9.732-4.805-20.42-7.207-32.062-7.207c-10.658,0-18.896,3.465-24.717,10.396
				c-5.822,6.93-8.732,16.833-8.732,29.707c0,12.629,2.633,22.254,7.9,28.875c5.266,6.623,12.857,9.934,22.777,9.934
				c5.42,0,10.408-0.522,14.969-1.57v-21.16H749.08V299.55z"/>
		</g>
	</g>
	<g>
		<g enable-background="new    ">
			<path fill="#EC1846" d="M369.342,194.396h-6.795v-47.432h-56.337v47.432h-6.729V97.95h6.729v42.813h56.337V97.95h6.795V194.396z"
				/>
			<path fill="#EC1846" d="M469.98,160.356h-39.186l-13.458,34.04h-7.455l38.789-96.842h4.289l37.998,96.842h-7.587L469.98,160.356z
				 M433.236,154.287h34.501l-13.128-34.766c-1.1-2.726-2.419-6.508-3.958-11.347c-1.187,4.223-2.485,8.049-3.892,11.479
				L433.236,154.287z"/>
			<path fill="#EC1846" d="M538.229,152.374v42.022H531.5V97.95h22.957c11.963,0,20.803,2.21,26.52,6.63s8.576,11.072,8.576,19.955
				c0,6.465-1.705,11.919-5.112,16.36c-3.409,4.442-8.587,7.631-15.536,9.565l26.189,43.936h-8.048l-24.87-42.022H538.229z
				 M538.229,146.569h18.406c8.135,0,14.447-1.814,18.933-5.442c4.485-3.629,6.729-8.982,6.729-16.063
				c0-7.345-2.2-12.688-6.598-16.03c-4.398-3.342-11.566-5.014-21.506-5.014h-15.965V146.569z"/>
			<path fill="#EC1846" d="M696.723,125.657c0,9.324-3.167,16.471-9.5,21.439c-6.333,4.971-15.305,7.455-26.915,7.455h-14.909
				v39.845h-6.729V97.95h23.617C685.244,97.95,696.723,107.186,696.723,125.657z M645.398,148.746h13.26
				c10.862,0,18.713-1.792,23.551-5.377c4.838-3.584,7.257-9.4,7.257-17.448c0-7.432-2.288-12.94-6.86-16.525
				c-4.575-3.584-11.655-5.376-21.242-5.376h-15.965V148.746z"/>
			<path fill="#EC1846" d="M791.028,160.356h-39.186l-13.458,34.04h-7.454l38.79-96.842h4.288l37.998,96.842h-7.587L791.028,160.356
				z M754.283,154.287h34.502l-13.128-34.766c-1.1-2.726-2.419-6.508-3.958-11.347c-1.188,4.223-2.485,8.049-3.892,11.479
				L754.283,154.287z"/>
		</g>
		<g enable-background="new    ">
			<path fill="#F6D92A" d="M368.202,193.401h-6.795V145.97H305.07v47.432h-6.729V96.955h6.729v42.813h56.337V96.955h6.795V193.401z"
				/>
			<path fill="#F6D92A" d="M468.841,159.361h-39.186l-13.458,34.04h-7.455l38.789-96.842h4.288l37.998,96.842h-7.586
				L468.841,159.361z M432.096,153.292h34.501l-13.128-34.766c-1.1-2.726-2.419-6.508-3.958-11.347
				c-1.188,4.223-2.485,8.049-3.893,11.479L432.096,153.292z"/>
			<path fill="#F6D92A" d="M537.089,151.379v42.022h-6.729V96.955h22.957c11.962,0,20.802,2.21,26.52,6.63
				c5.717,4.42,8.576,11.072,8.576,19.955c0,6.465-1.705,11.919-5.112,16.36c-3.409,4.442-8.588,7.631-15.536,9.565l26.189,43.936
				h-8.048l-24.87-42.022H537.089z M537.089,145.574h18.405c8.136,0,14.447-1.814,18.934-5.442
				c4.485-3.629,6.729-8.982,6.729-16.063c0-7.345-2.199-12.688-6.597-16.03c-4.398-3.342-11.567-5.014-21.506-5.014h-15.965
				V145.574z"/>
			<path fill="#F6D92A" d="M695.582,124.662c0,9.324-3.166,16.471-9.499,21.439c-6.333,4.971-15.305,7.455-26.915,7.455h-14.909
				v39.845h-6.729V96.955h23.616C684.104,96.955,695.582,106.19,695.582,124.662z M644.259,147.751h13.26
				c10.862,0,18.712-1.792,23.551-5.377c4.837-3.584,7.257-9.4,7.257-17.448c0-7.432-2.288-12.94-6.861-16.525
				c-4.574-3.584-11.654-5.376-21.242-5.376h-15.964V147.751z"/>
			<path fill="#F6D92A" d="M789.889,159.361h-39.186l-13.458,34.04h-7.454l38.79-96.842h4.288l37.998,96.842h-7.587L789.889,159.361
				z M753.144,153.292h34.502l-13.128-34.766c-1.1-2.726-2.419-6.508-3.958-11.347c-1.188,4.223-2.485,8.049-3.892,11.479
				L753.144,153.292z"/>
		</g>
	</g>
	<g>
		<g enable-background="new    ">
			<path fill="#FDEE57" d="M395.616,283.802c0,15.094-4.451,26.751-13.353,34.975c-8.902,8.224-21.545,12.336-37.931,12.336h-10.257
				v44.814h-36.498V240.836h46.755c17.062,0,29.876,3.729,38.439,11.181C391.334,259.471,395.616,270.067,395.616,283.802z
				 M334.076,301.359h6.653c5.481,0,9.841-1.539,13.075-4.62c3.233-3.079,4.851-7.33,4.851-12.751
				c0-9.116-5.052-13.676-15.154-13.676h-9.425V301.359z"/>
			<path fill="#FDEE57" d="M532.575,308.197c0,22.73-5.576,40.01-16.725,51.837c-11.15,11.828-27.476,17.741-48.973,17.741
				c-21.192,0-37.439-5.943-48.742-17.833c-11.305-11.889-16.956-29.199-16.956-51.93c0-22.484,5.621-39.655,16.863-51.515
				c11.241-11.857,27.582-17.787,49.02-17.787c21.498,0,37.792,5.884,48.88,17.648C527.031,268.127,532.575,285.406,532.575,308.197
				z M439.619,308.197c0,26.119,9.086,39.179,27.259,39.179c9.24,0,16.092-3.173,20.559-9.518
				c4.466-6.344,6.699-16.231,6.699-29.661c0-13.49-2.264-23.454-6.791-29.892c-4.528-6.437-11.289-9.656-20.282-9.656
				C448.767,268.649,439.619,281.832,439.619,308.197z"/>
			<path fill="#FDEE57" d="M674.617,375.927h-47.864l-49.343-95.174h-0.831c1.169,14.969,1.755,26.396,1.755,34.281v60.893h-32.34
				V240.836h47.679l49.158,93.881h0.554c-0.863-13.613-1.293-24.547-1.293-32.803v-61.078h32.525V375.927z"/>
			<path fill="#FDEE57" d="M747.08,296.832h58.305v72.812c-15.832,5.421-33.234,8.131-52.207,8.131
				c-20.822,0-36.914-6.036-48.279-18.11c-11.365-12.073-17.048-29.291-17.048-51.652c0-21.807,6.221-38.777,18.665-50.914
				c12.442-12.135,29.877-18.203,52.299-18.203c8.502,0,16.525,0.802,24.07,2.403c7.547,1.603,14.123,3.635,19.729,6.098
				l-11.551,28.645c-9.732-4.805-20.42-7.207-32.062-7.207c-10.658,0-18.896,3.465-24.717,10.396
				c-5.822,6.93-8.732,16.833-8.732,29.707c0,12.629,2.633,22.254,7.9,28.875c5.266,6.623,12.857,9.934,22.777,9.934
				c5.42,0,10.408-0.522,14.969-1.57v-21.16H747.08V296.832z"/>
		</g>
	</g>
	<g>
		<g>
			
				<line fill="none" stroke="#84C341" stroke-width="7.381" stroke-miterlimit="10" x1="24.17" y1="108.163" x2="54.924" y2="396.023"/>
			<polygon fill="#FFFFFF" stroke="#84C341" stroke-width="7.381" stroke-miterlimit="10" points="123.814,66.338 205.005,113.084 
				205.005,381.261 96.75,423.087 54.924,396.023 24.17,108.163 			"/>
			
				<line fill="none" stroke="#84C341" stroke-width="7.381" stroke-miterlimit="10" x1="24.17" y1="108.163" x2="123.814" y2="66.338"/>
			
				<line fill="none" stroke="#84C341" stroke-width="7.381" stroke-miterlimit="10" x1="123.814" y1="66.338" x2="205.005" y2="113.084"/>
			
				<line fill="none" stroke="#84C341" stroke-width="7.381" stroke-miterlimit="10" x1="205.005" y1="113.084" x2="205.005" y2="381.261"/>
			
				<line fill="none" stroke="#84C341" stroke-width="7.381" stroke-miterlimit="10" x1="96.75" y1="423.087" x2="205.005" y2="381.261"/>
		</g>
		<g>
			
				<line fill="none" stroke="#84C341" stroke-width="7.381" stroke-miterlimit="10" x1="25.4" y1="104.473" x2="56.154" y2="392.333"/>
			<polygon fill="#FFFFFF" stroke="#84C341" stroke-width="7.381" stroke-miterlimit="10" points="125.044,62.647 206.235,109.394 
				206.235,377.571 97.98,419.397 56.154,392.333 25.4,104.473 			"/>
			
				<line fill="none" stroke="#84C341" stroke-width="7.381" stroke-miterlimit="10" x1="25.4" y1="104.473" x2="125.044" y2="62.647"/>
			
				<line fill="none" stroke="#84C341" stroke-width="7.381" stroke-miterlimit="10" x1="125.044" y1="62.647" x2="206.235" y2="109.394"/>
			
				<line fill="none" stroke="#84C341" stroke-width="7.381" stroke-miterlimit="10" x1="206.235" y1="109.394" x2="206.235" y2="377.571"/>
			
				<line fill="none" stroke="#84C341" stroke-width="7.381" stroke-miterlimit="10" x1="97.98" y1="419.397" x2="206.235" y2="377.571"/>
		</g>
	</g>
	<g>
		<g>
			
				<line fill="none" stroke="#706F6F" stroke-width="7.381" stroke-miterlimit="10" x1="24.17" y1="102.941" x2="54.924" y2="390.801"/>
			<polygon fill="#FFFFFF" stroke="#706F6F" stroke-width="7.381" stroke-miterlimit="10" points="123.814,61.115 205.005,107.861 
				205.005,376.039 96.75,417.864 54.924,390.801 24.17,102.941 			"/>
			
				<line fill="none" stroke="#706F6F" stroke-width="7.381" stroke-miterlimit="10" x1="24.17" y1="102.941" x2="123.814" y2="61.115"/>
			
				<line fill="none" stroke="#706F6F" stroke-width="7.381" stroke-miterlimit="10" x1="123.814" y1="61.115" x2="205.005" y2="107.861"/>
			
				<line fill="none" stroke="#706F6F" stroke-width="7.381" stroke-miterlimit="10" x1="205.005" y1="107.861" x2="205.005" y2="376.039"/>
			
				<line fill="none" stroke="#706F6F" stroke-width="7.381" stroke-miterlimit="10" x1="96.75" y1="417.864" x2="205.005" y2="376.039"/>
		</g>
		<g>
			<line fill="none" stroke="#231F20" stroke-width="7.381" stroke-miterlimit="10" x1="25.4" y1="99.25" x2="56.154" y2="387.11"/>
			<polygon fill="#FFFFFF" stroke="#231F20" stroke-width="7.381" stroke-miterlimit="10" points="125.044,57.424 206.235,104.171 
				206.235,372.348 97.98,414.174 56.154,387.11 25.4,99.25 			"/>
			
				<line fill="none" stroke="#231F20" stroke-width="7.381" stroke-miterlimit="10" x1="25.4" y1="99.25" x2="125.044" y2="57.424"/>
			
				<line fill="none" stroke="#231F20" stroke-width="7.381" stroke-miterlimit="10" x1="125.044" y1="57.424" x2="206.235" y2="104.171"/>
			
				<line fill="none" stroke="#231F20" stroke-width="7.381" stroke-miterlimit="10" x1="206.235" y1="104.171" x2="206.235" y2="372.348"/>
			
				<line fill="none" stroke="#231F20" stroke-width="7.381" stroke-miterlimit="10" x1="97.98" y1="414.174" x2="206.235" y2="372.348"/>
		</g>
	</g>
	<g>
		<circle fill="#FFFFFF" stroke="#FBB11C" stroke-width="7.381" stroke-miterlimit="10" cx="206.211" cy="96.432" r="29.998"/>
		<circle fill="#FFFFFF" stroke="#C2569F" stroke-width="7.381" stroke-miterlimit="10" cx="209.482" cy="93.749" r="29.998"/>
	</g>
	<g>
		<circle fill="#FFFFFF" stroke="#919090" stroke-width="7.381" stroke-miterlimit="10" cx="211.434" cy="91.209" r="29.998"/>
		<circle fill="#FFFFFF" stroke="#231F20" stroke-width="7.381" stroke-miterlimit="10" cx="214.705" cy="88.527" r="29.998"/>
	</g>
	<g>
		<path fill="#FFFFFF" stroke="#231F20" stroke-width="5.099" stroke-miterlimit="10" d="M184.524,134.722
			c-1.323,0.265-2.691,0.404-4.092,0.404c-11.445,0-20.724-9.278-20.724-20.724c0-4.685,1.555-9.007,4.177-12.479"/>
		<path fill="#FFFFFF" stroke="#231F20" stroke-width="5.099" stroke-miterlimit="10" d="M187.699,133.816
			c-1.022,0.383-2.083,0.687-3.175,0.906"/>
	</g>
	<g>
		<path fill="#FFFFFF" stroke="#231F20" stroke-width="5.099" stroke-miterlimit="10" d="M165.383,150.013
			c-1.323,0.265-2.691,0.404-4.092,0.404c-11.445,0-20.724-9.278-20.724-20.724c0-4.685,1.555-9.007,4.177-12.479"/>
		<path fill="#FFFFFF" stroke="#231F20" stroke-width="5.099" stroke-miterlimit="10" d="M168.558,149.107
			c-1.022,0.383-2.083,0.687-3.175,0.906"/>
	</g>
</g>
</svg>
