<?xml version="1.0" encoding="utf-8"?>
<!-- Generator: Adobe Illustrator 17.0.0, SVG Export Plug-In . SVG Version: 6.00 Build 0)  -->
<!DOCTYPE svg PUBLIC "-//W3C//DTD SVG 1.1//EN" "http://www.w3.org/Graphics/SVG/1.1/DTD/svg11.dtd">
<svg version="1.1" id="Layer_1" xmlns="http://www.w3.org/2000/svg" xmlns:xlink="http://www.w3.org/1999/xlink" x="0px" y="0px"
	 width="873px" height="480px" viewBox="0 0 873 480" enable-background="new 0 0 873 480" xml:space="preserve">
<g>
	<g>
		<g>
			
				<line fill="#FFFFFF" stroke="#84C341" stroke-width="7.381" stroke-miterlimit="10" x1="24.17" y1="108.163" x2="54.924" y2="396.023"/>
			<polygon fill="#FFFFFF" stroke="#84C341" stroke-width="7.381" stroke-miterlimit="10" points="123.814,66.338 205.005,113.084 
				205.005,381.261 96.75,423.087 54.924,396.023 24.17,108.163 			"/>
			
				<line fill="#FFFFFF" stroke="#84C341" stroke-width="7.381" stroke-miterlimit="10" x1="24.17" y1="108.163" x2="123.814" y2="66.338"/>
			
				<line fill="#FFFFFF" stroke="#84C341" stroke-width="7.381" stroke-miterlimit="10" x1="123.814" y1="66.338" x2="205.005" y2="113.084"/>
			
				<line fill="#FFFFFF" stroke="#84C341" stroke-width="7.381" stroke-miterlimit="10" x1="205.005" y1="113.084" x2="205.005" y2="381.261"/>
			
				<line fill="#FFFFFF" stroke="#84C341" stroke-width="7.381" stroke-miterlimit="10" x1="96.75" y1="423.087" x2="205.005" y2="381.261"/>
		</g>
		<g>
			
				<line fill="#FFFFFF" stroke="#84C341" stroke-width="7.381" stroke-miterlimit="10" x1="25.4" y1="104.473" x2="56.154" y2="392.333"/>
			<polygon fill="#FFFFFF" stroke="#84C341" stroke-width="7.381" stroke-miterlimit="10" points="125.044,62.647 206.235,109.394 
				206.235,377.571 97.98,419.397 56.154,392.333 25.4,104.473 			"/>
			
				<line fill="#FFFFFF" stroke="#84C341" stroke-width="7.381" stroke-miterlimit="10" x1="25.4" y1="104.473" x2="125.044" y2="62.647"/>
			
				<line fill="#FFFFFF" stroke="#84C341" stroke-width="7.381" stroke-miterlimit="10" x1="125.044" y1="62.647" x2="206.235" y2="109.394"/>
			
				<line fill="#FFFFFF" stroke="#84C341" stroke-width="7.381" stroke-miterlimit="10" x1="206.235" y1="109.394" x2="206.235" y2="377.571"/>
			
				<line fill="#FFFFFF" stroke="#84C341" stroke-width="7.381" stroke-miterlimit="10" x1="97.98" y1="419.397" x2="206.235" y2="377.571"/>
		</g>
	</g>
	<g>
		<g>
			
				<line fill="#FFFFFF" stroke="#706F6F" stroke-width="7.381" stroke-miterlimit="10" x1="24.17" y1="102.941" x2="54.924" y2="390.801"/>
			<polygon fill="#FFFFFF" stroke="#706F6F" stroke-width="7.381" stroke-miterlimit="10" points="123.814,61.115 205.005,107.861 
				205.005,376.039 96.75,417.864 54.924,390.801 24.17,102.941 			"/>
			
				<line fill="#FFFFFF" stroke="#706F6F" stroke-width="7.381" stroke-miterlimit="10" x1="24.17" y1="102.941" x2="123.814" y2="61.115"/>
			
				<line fill="#FFFFFF" stroke="#706F6F" stroke-width="7.381" stroke-miterlimit="10" x1="123.814" y1="61.115" x2="205.005" y2="107.861"/>
			
				<line fill="#FFFFFF" stroke="#706F6F" stroke-width="7.381" stroke-miterlimit="10" x1="205.005" y1="107.861" x2="205.005" y2="376.039"/>
			
				<line fill="#FFFFFF" stroke="#706F6F" stroke-width="7.381" stroke-miterlimit="10" x1="96.75" y1="417.864" x2="205.005" y2="376.039"/>
		</g>
		<g>
			
				<line fill="#FFFFFF" stroke="#231F20" stroke-width="7.381" stroke-miterlimit="10" x1="25.4" y1="99.25" x2="56.154" y2="387.11"/>
			<polygon fill="#FFFFFF" stroke="#231F20" stroke-width="7.381" stroke-miterlimit="10" points="125.044,57.424 206.235,104.171 
				206.235,372.348 97.98,414.174 56.154,387.11 25.4,99.25 			"/>
			
				<line fill="#FFFFFF" stroke="#231F20" stroke-width="7.381" stroke-miterlimit="10" x1="25.4" y1="99.25" x2="125.044" y2="57.424"/>
			
				<line fill="#FFFFFF" stroke="#231F20" stroke-width="7.381" stroke-miterlimit="10" x1="125.044" y1="57.424" x2="206.235" y2="104.171"/>
			
				<line fill="#FFFFFF" stroke="#231F20" stroke-width="7.381" stroke-miterlimit="10" x1="206.235" y1="104.171" x2="206.235" y2="372.348"/>
			
				<line fill="#FFFFFF" stroke="#231F20" stroke-width="7.381" stroke-miterlimit="10" x1="97.98" y1="414.174" x2="206.235" y2="372.348"/>
		</g>
	</g>
	<g>
		<circle fill="#FFFFFF" stroke="#FBB11C" stroke-width="7.381" stroke-miterlimit="10" cx="206.211" cy="96.432" r="29.998"/>
		<circle fill="#FFFFFF" stroke="#C2569F" stroke-width="7.381" stroke-miterlimit="10" cx="209.482" cy="93.749" r="29.998"/>
	</g>
	<g>
		<circle fill="#FFFFFF" stroke="#919090" stroke-width="7.381" stroke-miterlimit="10" cx="211.434" cy="91.209" r="29.998"/>
		<circle fill="#FFFFFF" stroke="#231F20" stroke-width="7.381" stroke-miterlimit="10" cx="214.705" cy="88.527" r="29.998"/>
	</g>
	<g>
		<path fill="#FFFFFF" stroke="#231F20" stroke-width="5.099" stroke-miterlimit="10" d="M184.524,134.722
			c-1.323,0.265-2.691,0.404-4.092,0.404c-11.445,0-20.724-9.278-20.724-20.724c0-4.685,1.555-9.007,4.177-12.479"/>
		<path fill="#FFFFFF" stroke="#231F20" stroke-width="5.099" stroke-miterlimit="10" d="M187.699,133.816
			c-1.022,0.383-2.083,0.687-3.175,0.906"/>
	</g>
	<g>
		<path fill="#FFFFFF" stroke="#231F20" stroke-width="5.099" stroke-miterlimit="10" d="M165.383,150.013
			c-1.323,0.265-2.691,0.404-4.092,0.404c-11.445,0-20.724-9.278-20.724-20.724c0-4.685,1.555-9.007,4.177-12.479"/>
		<path fill="#FFFFFF" stroke="#231F20" stroke-width="5.099" stroke-miterlimit="10" d="M168.558,149.107
			c-1.022,0.383-2.083,0.687-3.175,0.906"/>
	</g>
	<text transform="matrix(1 0 0 1 284.6816 357.6113)" fill="#F5881F" font-family="'OpenSans-Extrabold'" font-size="178.9716">PONG</text>
	<g>
		
			<text transform="matrix(1 0 0 1 282.9784 361.6454)" fill="#FDEE57" font-family="'OpenSans-Extrabold'" font-size="189.2388" letter-spacing="-11">PONG</text>
	</g>
	<g>
		
			<text transform="matrix(1 0 0 1 283.8252 193.3964)" fill="#EC1846" font-family="'OpenSans-Light'" font-size="135.1042" letter-spacing="27">HARPA</text>
		
			<text transform="matrix(1 0 0 1 284.6855 193.4013)" fill="#F6D92A" font-family="'OpenSans-Light'" font-size="135.1042" letter-spacing="27">HARPA</text>
	</g>
</g>
</svg>
